# xmcd
#
# Track frame offsets:
#	150
#	20880
#	36666
#	54642
#	74299
#	97381
#	111721
#	128581
#	146376
#	162087
#	181426
#	200177
#	217014
#	232589
#	256765
#	275322
#	293602
#	313122
#
# Disc length: 4438 seconds
#
# Revision: 6
# Processed by: cddbd v1.5.2PL0 Copyright (c) Steve Scherf et al.
# Submitted via: EasyCDDAExtractor 9.0.2.1
#
DISCID=1b115412
DTITLE=Various Artist - Millenium Ballads Vol.1 (Disk 2)
DYEAR=2000
DGENRE=Ballad
TTITLE0=Daniel Lavoie,Patrick Fiori, Garoe  - Belle
TTITLE1=Enrique Iglesias -  The Rhythm Divine
TTITLE2=Sasha -  If You Believe
TTITLE3=Whitney Houston - My Love Is Your Love
TTITLE4=Adriano Celentano - Angel
TTITLE5=Oli P -  So Bist Du
TTITLE6=Moby - Why Does My Heart
TTITLE7=Garbage - The World Is Not Enough
TTITLE8=In Mood feat Juliette - The Last Unicorn
TTITLE9=Robbie Williams - She's The One
TTITLE10=Andru Donalds - All Out of Love
TTITLE11=T.Turner - When The Heartache Is Over
TTITLE12=Savage Garden - Two Beds And a Coffee Machinet
TTITLE13=Mylene Farmer - Innamoramento
TTITLE14=Loona - Hijo De La Luna
TTITLE15=Ricky Martin and Madonna - Be Careful
TTITLE16=Jessica - Tell Me Why
TTITLE17=A-Teens - Happy New Year
EXTD=
EXTT0=
EXTT1=
EXTT2=
EXTT3=
EXTT4=
EXTT5=
EXTT6=
EXTT7=
EXTT8=
EXTT9=
EXTT10=
EXTT11=
EXTT12=
EXTT13=
EXTT14=
EXTT15=
EXTT16=
EXTT17=
PLAYORDER=
